<svg version="1.1" xmlns="http://www.w3.org/2000/svg">
    <defs>
        <symbol id="logo" viewBox="0 0 216 18" fill="none">
            <path d="M19.808 1.4L15.632 14h-2.484l-3.114-9.324L6.866 14H4.364L.188 1.4h2.43l3.132 9.576L9.008 1.4h2.16l3.186 9.63 3.222-9.63h2.232zm10.006 7.848c0 .156-.012.378-.036.666h-7.542c.132.708.474 1.272 1.026 1.692.564.408 1.26.612 2.088.612 1.056 0 1.926-.348 2.61-1.044l1.206 1.386a4.063 4.063 0 01-1.638 1.17c-.66.264-1.404.396-2.232.396-1.056 0-1.986-.21-2.79-.63a4.617 4.617 0 01-1.872-1.746c-.432-.756-.648-1.608-.648-2.556 0-.936.21-1.776.63-2.52a4.578 4.578 0 011.782-1.764c.756-.42 1.608-.63 2.556-.63.936 0 1.77.21 2.502.63a4.25 4.25 0 011.728 1.746c.42.744.63 1.608.63 2.592zm-4.86-3.168c-.72 0-1.332.216-1.836.648-.492.42-.792.984-.9 1.692h5.454c-.096-.696-.39-1.26-.882-1.692-.492-.432-1.104-.648-1.836-.648zM31.975.644h2.25V14h-2.25V.644zm9.613 13.482c-.996 0-1.89-.21-2.682-.63a4.645 4.645 0 01-1.854-1.746c-.444-.756-.666-1.608-.666-2.556s.222-1.794.666-2.538a4.676 4.676 0 011.836-1.746c.792-.42 1.692-.63 2.7-.63.948 0 1.776.192 2.484.576.72.384 1.26.936 1.62 1.656L43.964 7.52a2.656 2.656 0 00-1.044-.99 2.72 2.72 0 00-1.35-.342c-.84 0-1.536.276-2.088.828-.552.54-.828 1.266-.828 2.178 0 .912.27 1.644.81 2.196.552.54 1.254.81 2.106.81a2.84 2.84 0 001.35-.324c.42-.228.768-.564 1.044-1.008l1.728 1.008a3.936 3.936 0 01-1.638 1.674c-.708.384-1.53.576-2.466.576zm10.228 0c-.972 0-1.848-.21-2.628-.63a4.676 4.676 0 01-1.836-1.746c-.431-.756-.647-1.608-.647-2.556s.215-1.794.648-2.538a4.676 4.676 0 011.835-1.746c.78-.42 1.656-.63 2.628-.63.984 0 1.866.21 2.646.63a4.55 4.55 0 011.819 1.746c.444.744.666 1.59.666 2.538 0 .948-.223 1.8-.666 2.556a4.55 4.55 0 01-1.819 1.746c-.78.42-1.662.63-2.646.63zm0-1.926c.828 0 1.512-.276 2.052-.828.54-.552.81-1.278.81-2.178 0-.9-.27-1.626-.81-2.178s-1.224-.828-2.052-.828c-.828 0-1.512.276-2.052.828-.528.552-.792 1.278-.792 2.178 0 .9.264 1.626.792 2.178.54.552 1.224.828 2.052.828zM71.23 4.28c1.212 0 2.172.354 2.88 1.062.708.696 1.062 1.746 1.062 3.15V14h-2.25V8.78c0-.84-.186-1.47-.558-1.89-.372-.432-.906-.648-1.602-.648-.756 0-1.362.252-1.818.756-.456.492-.684 1.2-.684 2.124V14h-2.25V8.78c0-.84-.186-1.47-.558-1.89-.372-.432-.906-.648-1.602-.648-.768 0-1.38.246-1.836.738-.444.492-.666 1.206-.666 2.142V14h-2.25V4.388h2.142v1.224c.36-.432.81-.762 1.35-.99a4.583 4.583 0 011.8-.342c.72 0 1.356.138 1.908.414.564.264 1.008.66 1.332 1.188a3.928 3.928 0 011.53-1.17 4.88 4.88 0 012.07-.432zm15.941 4.968c0 .156-.012.378-.036.666h-7.542c.132.708.474 1.272 1.026 1.692.564.408 1.26.612 2.088.612 1.056 0 1.926-.348 2.61-1.044l1.206 1.386a4.063 4.063 0 01-1.638 1.17c-.66.264-1.404.396-2.232.396-1.056 0-1.986-.21-2.79-.63a4.617 4.617 0 01-1.872-1.746c-.432-.756-.648-1.608-.648-2.556 0-.936.21-1.776.63-2.52a4.578 4.578 0 011.782-1.764c.756-.42 1.608-.63 2.556-.63.936 0 1.77.21 2.502.63a4.25 4.25 0 011.728 1.746c.42.744.63 1.608.63 2.592zm-4.86-3.168c-.72 0-1.332.216-1.836.648-.492.42-.792.984-.9 1.692h5.454c-.096-.696-.39-1.26-.882-1.692-.492-.432-1.104-.648-1.836-.648zm17.774 7.398a2.642 2.642 0 01-.972.486 4.242 4.242 0 01-1.188.162c-1.056 0-1.872-.276-2.448-.828-.576-.552-.864-1.356-.864-2.412V6.26H93.03v-1.8h1.584V2.264h2.25V4.46h2.574v1.8h-2.574v4.572c0 .468.114.828.342 1.08.228.24.558.36.99.36.504 0 .924-.132 1.26-.396l.63 1.602zm5.855.648c-.972 0-1.848-.21-2.628-.63a4.676 4.676 0 01-1.836-1.746c-.432-.756-.648-1.608-.648-2.556s.216-1.794.648-2.538a4.676 4.676 0 011.836-1.746c.78-.42 1.656-.63 2.628-.63.984 0 1.866.21 2.646.63a4.55 4.55 0 011.818 1.746c.444.744.666 1.59.666 2.538 0 .948-.222 1.8-.666 2.556a4.55 4.55 0 01-1.818 1.746c-.78.42-1.662.63-2.646.63zm0-1.926c.828 0 1.512-.276 2.052-.828.54-.552.81-1.278.81-2.178 0-.9-.27-1.626-.81-2.178s-1.224-.828-2.052-.828c-.828 0-1.512.276-2.052.828-.528.552-.792 1.278-.792 2.178 0 .9.264 1.626.792 2.178.54.552 1.224.828 2.052.828z" fill="#fff"/>
            <path d="M131.984 15.458c-.42.516-.936.906-1.548 1.17a4.68 4.68 0 01-1.98.414c-.696 0-1.326-.09-1.89-.27-.564-.18-1.134-.48-1.71-.9-.564-.408-1.2-.984-1.908-1.728-1.092-.18-2.064-.57-2.916-1.17a6.365 6.365 0 01-1.998-2.268c-.468-.912-.702-1.914-.702-3.006 0-1.248.3-2.37.9-3.366a6.438 6.438 0 012.502-2.34c1.068-.564 2.268-.846 3.6-.846 1.332 0 2.526.282 3.582.846 1.068.564 1.902 1.344 2.502 2.34.612.996.918 2.118.918 3.366 0 1.416-.39 2.67-1.17 3.762-.768 1.08-1.806 1.854-3.114 2.322.24.264.474.45.702.558.24.108.498.162.774.162.708 0 1.344-.294 1.908-.882l1.548 1.836zM120.932 7.7c0 .708.15 1.338.45 1.89.3.54.708.96 1.224 1.26.516.3 1.092.45 1.728.45.636 0 1.212-.15 1.728-.45.516-.3.924-.72 1.224-1.26.3-.552.45-1.182.45-1.89s-.15-1.332-.45-1.872a3.222 3.222 0 00-1.224-1.278 3.375 3.375 0 00-1.728-.45c-.636 0-1.212.15-1.728.45-.516.3-.924.726-1.224 1.278-.3.54-.45 1.164-.45 1.872zm18.03-6.3c1.14 0 2.13.192 2.97.576.84.372 1.488.912 1.944 1.62.456.696.684 1.518.684 2.466 0 .948-.228 1.77-.684 2.466-.456.696-1.104 1.236-1.944 1.62-.84.372-1.83.558-2.97.558h-2.196V14h-3.564V1.4h5.76zm-.216 6.498c.732 0 1.284-.156 1.656-.468.372-.324.558-.78.558-1.368 0-.588-.186-1.044-.558-1.368-.372-.324-.924-.486-1.656-.486h-1.98v3.69h1.98zm12.156 6.354c-1.02 0-2.01-.126-2.97-.378-.96-.252-1.74-.588-2.34-1.008l1.17-2.628a7.57 7.57 0 001.962.9 7.469 7.469 0 002.196.342c1.368 0 2.052-.342 2.052-1.026 0-.36-.198-.624-.594-.792-.384-.18-1.008-.366-1.872-.558-.948-.204-1.74-.42-2.376-.648a4.078 4.078 0 01-1.638-1.134c-.456-.516-.684-1.212-.684-2.088 0-.768.21-1.458.63-2.07.42-.624 1.044-1.116 1.872-1.476.84-.36 1.866-.54 3.078-.54.828 0 1.644.096 2.448.288.804.18 1.512.45 2.124.81l-1.098 2.646c-1.2-.648-2.364-.972-3.492-.972-.708 0-1.224.108-1.548.324-.324.204-.486.474-.486.81 0 .336.192.588.576.756.384.168 1.002.342 1.854.522.96.204 1.752.426 2.376.666.636.228 1.182.6 1.638 1.116.468.504.702 1.194.702 2.07 0 .756-.21 1.44-.63 2.052-.42.612-1.05 1.104-1.89 1.476-.84.36-1.86.54-3.06.54zM158.56 1.4h2.34V14h-2.34V1.4zm16.944 0V14h-1.926l-6.948-8.532V14h-2.322V1.4h1.926l6.948 8.532V1.4h2.322zm5.716 1.962v3.834h6.084v1.98h-6.084V14h-2.34V1.4h9.198v1.962h-6.858zM198.585 14l-2.574-3.69c-.108.012-.27.018-.486.018h-2.844V14h-2.34V1.4h5.184c1.092 0 2.04.18 2.844.54.816.36 1.44.876 1.872 1.548.432.672.648 1.47.648 2.394 0 .948-.234 1.764-.702 2.448-.456.684-1.116 1.194-1.98 1.53l2.898 4.14h-2.52zm-.054-8.118c0-.804-.264-1.422-.792-1.854-.528-.432-1.302-.648-2.322-.648h-2.736v5.022h2.736c1.02 0 1.794-.216 2.322-.648.528-.444.792-1.068.792-1.872zm13.148 5.202h-6.3L204.137 14h-2.412l5.67-12.6h2.304l5.688 12.6h-2.448l-1.26-2.916zm-.774-1.836l-2.376-5.508-2.358 5.508h4.734z" fill="#70BFFE"/>
        </symbol>
        <symbol  id="qps" viewBox="0 0 40 40" fill="none">
            <path opacity=".5" d="M40 31.095L34.006 25.1c1-2.225 1.563-4.688 1.563-7.281C35.569 8 27.606.038 17.787.038 7.97.038 0 7.995 0 17.813c0 9.819 7.963 17.781 17.781 17.781 2.632 0 5.125-.575 7.369-1.6l5.969 5.97L40 31.093z" fill="#fff"/>
            <path opacity=".5" d="M22.25 13.338l-8.875 8.874L25.156 34a17.816 17.816 0 008.85-8.9L22.25 13.337z" fill="#fff"/>
        </symbol>
        <symbol id="play" viewBox="0 0 14 18">
            <path d="M.237 2.093v13.814a1.33 1.33 0 002.053 1.12l10.853-6.907c.827-.52.827-1.72 0-2.253L2.29.973a1.33 1.33 0 00-2.053 1.12z"/>
        </symbol>
        <symbol id="git" viewBox="0 0 20 20" fill="none">
            <path d="M10 .417c-5.525 0-10 4.4-10 9.826 0 4.343 2.865 8.025 6.838 9.324.5.092.683-.212.683-.473 0-.233-.008-.852-.013-1.67-2.781.592-3.368-1.319-3.368-1.319-.455-1.134-1.112-1.438-1.112-1.438-.906-.609.07-.596.07-.596 1.004.068 1.531 1.012 1.531 1.012.892 1.503 2.341 1.069 2.913.818.09-.636.347-1.069.633-1.314-2.22-.246-4.555-1.091-4.555-4.856 0-1.073.388-1.95 1.03-2.637-.113-.248-.45-1.247.087-2.6 0 0 .837-.264 2.75 1.007.8-.219 1.65-.327 2.5-.332.85.005 1.7.113 2.5.332 1.9-1.271 2.737-1.008 2.737-1.008.538 1.354.2 2.353.1 2.601a3.77 3.77 0 011.025 2.637c0 3.775-2.337 4.606-4.562 4.847.35.295.675.898.675 1.819 0 1.315-.013 2.371-.013 2.69 0 .258.175.566.688.467 4-1.29 6.863-4.975 6.863-9.31C20 4.816 15.523.416 10 .416z" fill="#000"/>
        </symbol>
        <symbol id="telegram" viewBox="0 0 20 20" fill="none">
            <path d="M10 20c5.523 0 10-4.477 10-10S15.523 0 10 0 0 4.477 0 10s4.477 10 10 10z" fill="#039BE5"/>
            <path d="M4.576 9.783l9.642-3.717c.447-.162.838.109.693.786V6.85l-1.641 7.734c-.122.548-.447.682-.903.423l-2.5-1.842-1.206 1.162c-.134.133-.246.245-.504.245l.177-2.544 4.633-4.186c.202-.177-.045-.277-.31-.1L6.93 11.346l-2.469-.77c-.535-.17-.547-.535.114-.794z" fill="#fff"/>
        </symbol>
        <symbol id="web" viewBox="0 0 20 20" fill="none">
            <path d="M10 20c5.523 0 10-4.477 10-10S15.523 0 10 0 0 4.477 0 10s4.477 10 10 10z" fill="#324A5E"/>
            <path d="M3.164 6.93v7.977c0 .063.052.11.111.11h13.446a.11.11 0 00.11-.11V6.93H3.165z" fill="#fff"/>
            <path d="M16.836 7.038V5.683a.698.698 0 00-.697-.697H3.86a.698.698 0 00-.697.697v1.355h13.672z" fill="#4CDBC4"/>
            <path d="M11.275 6.507H4.57a.495.495 0 010-.99h6.705a.495.495 0 010 .99z" fill="#fff"/>
            <path d="M15.418 6.527a.507.507 0 100-1.014.507.507 0 000 1.014zM13.96 6.527a.507.507 0 100-1.014.507.507 0 000 1.014z" fill="#2C9984"/>
            <path d="M4.606 6.194h-.1l-.118-.345h.1l.066.21.068-.21h.095l.067.21.067-.21h.1l-.12.345h-.098l-.064-.19-.063.19zM5.188 6.194H5.09l-.119-.345h.1l.067.21.067-.21h.095l.067.21.068-.21h.099l-.12.345h-.098l-.064-.19-.063.19zM5.766 6.194h-.099l-.118-.345h.099l.067.21.067-.21h.095l.068.21.067-.21h.099l-.119.345h-.099l-.063-.19-.064.19z" fill="#324A5E"/>
            <path d="M5.153 9.994H4.62L4 8h.533l.359 1.208L5.25 8h.498l.36 1.208L6.466 8H7l-.625 2h-.533l-.336-1.088-.353 1.082zM8.158 9.994h-.533L7 8h.533l.359 1.208L8.25 8h.498l.36 1.208L9.466 8H10l-.625 2h-.533l-.336-1.088-.348 1.082zM11.158 9.994h-.532L10 8h.533l.359 1.208L11.25 8h.498l.36 1.208L12.466 8H13l-.626 2h-.532l-.336-1.088-.348 1.082z" fill="#2E3134"/>
            <path d="M14.693 13.648l.725-.725-1.188-1.192 1.085-.792-3.35-.745.744 3.35.796-1.089 1.188 1.193z" fill="#FF7058"/>
        </symbol>
        <symbol id="cross" viewBox="0 0 14 14">
            <path d="M14 1.41L12.59 0 7 5.59 1.41 0 0 1.41 5.59 7 0 12.59 1.41 14 7 8.41 12.59 14 14 12.59 8.41 7 14 1.41z"/>
        </symbol>
        <symbol id="bill" viewBox="0 0 26 30" fill="none">
            <path d="M21 9.667a8 8 0 00-16 0c0 9.333-4 12-4 12h24s-4-2.667-4-12zM15.307 27a2.667 2.667 0 01-4.614 0" stroke="#29168A" stroke-width="2" stroke-linecap="round" stroke-linejoin="round"/>
        </symbol>
    </defs>
</svg>